<?xml version="1.0" encoding="UTF-8" standalone="no"?>
<svg
   xmlns:dc="http://purl.org/dc/elements/1.1/"
   xmlns:cc="http://creativecommons.org/ns#"
   xmlns:rdf="http://www.w3.org/1999/02/22-rdf-syntax-ns#"
   xmlns:svg="http://www.w3.org/2000/svg"
   xmlns="http://www.w3.org/2000/svg"
   xmlns:sodipodi="http://sodipodi.sourceforge.net/DTD/sodipodi-0.dtd"
   xmlns:inkscape="http://www.inkscape.org/namespaces/inkscape"
   width="170"
   height="113"
   overflow="hidden"
   version="1.1"
   id="svg888"
   sodipodi:docname="progress_100.svg"
   inkscape:version="0.92.4 (5da689c313, 2019-01-14)">
  <metadata
     id="metadata892">
    <rdf:RDF>
      <cc:Work
         rdf:about="">
        <dc:format>image/svg+xml</dc:format>
        <dc:type
           rdf:resource="http://purl.org/dc/dcmitype/StillImage" />
        <dc:title></dc:title>
      </cc:Work>
    </rdf:RDF>
  </metadata>
  <sodipodi:namedview
     pagecolor="#ffffff"
     bordercolor="#666666"
     borderopacity="1"
     objecttolerance="10"
     gridtolerance="10"
     guidetolerance="10"
     inkscape:pageopacity="0"
     inkscape:pageshadow="2"
     inkscape:window-width="1920"
     inkscape:window-height="1017"
     id="namedview890"
     showgrid="false"
     inkscape:zoom="2.0884956"
     inkscape:cx="85"
     inkscape:cy="37.347458"
     inkscape:window-x="-8"
     inkscape:window-y="-8"
     inkscape:window-maximized="1"
     inkscape:current-layer="svg888" />
  <defs
     id="defs874">
    <clipPath
       id="clip0">
      <path
         d="M0 0 170 0 170 113 0 113Z"
         fill-rule="evenodd"
         clip-rule="evenodd"
         id="path871" />
    </clipPath>
  </defs>
  <path
     style="fill:#ffb380;fill-rule:evenodd;stroke-width:1.0014739"
     inkscape:connector-curvature="0"
     id="path878"
     d="M 49,55.65012 C 49,52.52964 51.537112,50 54.666798,50 h 22.666439 c 3.129706,0 5.666768,2.52964 5.666768,5.65012 v 46.69978 c 0,3.1205 -2.537062,5.6501 -5.666768,5.6501 H 54.666798 C 51.537112,108 49,105.4704 49,102.3499 Z" />
  <path
     style="fill:#ffe680;fill-rule:evenodd;stroke-width:1.0014739"
     inkscape:connector-curvature="0"
     id="path880"
     d="M 88,31.65014 C 88,28.52966 90.537122,26 93.666818,26 h 22.666422 c 3.1296,0 5.66677,2.52966 5.66677,5.65014 v 70.69976 c 0,3.1204 -2.53717,5.6501 -5.66677,5.6501 H 93.666818 C 90.537122,108 88,105.4703 88,102.3499 Z" />
  <path
     style="fill:#cdde87;fill-rule:evenodd;stroke-width:1.0014739"
     inkscape:connector-curvature="0"
     id="path882"
     d="m 128,9.65002 c 0,-3.12044 2.53709,-5.65006 5.66675,-5.65006 h 22.66649 c 3.1297,0 5.66676,2.52962 5.66676,5.65006 v 92.69994 c 0,3.12 -2.53706,5.65 -5.66676,5.65 h -22.66649 c -3.12966,0 -5.66675,-2.53 -5.66675,-5.65 z" />
  <path
     style="fill:#ffaaaa;fill-rule:evenodd;stroke-width:1.0014739"
     inkscape:connector-curvature="0"
     id="path884"
     d="M 9,79.65009 C 9,76.52963 11.537102,74 14.666768,74 h 22.666469 c 3.129706,0 5.666768,2.52963 5.666768,5.65009 V 102.35 c 0,3.1204 -2.537062,5.6501 -5.666768,5.6501 H 14.666768 C 11.537102,108.0001 9,105.4704 9,102.35 Z" />
</svg>
